<svg xmlns="http://www.w3.org/2000/svg" viewBox="0 0 900 620"><defs><radialGradient id="b"><stop stop-color="#201235"/><stop offset="1" stop-color="#02050a"/></radialGradient><linearGradient id="g" x1="0" x2="1"><stop stop-color="#8b5cf6"/><stop offset="1" stop-color="#ff2bd6"/></linearGradient><filter id="gl"><feGaussianBlur stdDeviation="7" result="b"/><feMerge><feMergeNode in="b"/><feMergeNode in="SourceGraphic"/></feMerge></filter></defs><rect width="900" height="620" rx="28" fill="url(#b)"/><g transform="translate(225 80)" stroke="#173348" opacity=".6"><path d="M0 420h450M90 0v420M180 0v420M270 0v420M360 0v420M450 0v420"/></g><g transform="translate(450 250)" filter="url(#gl)"><path d="M0 45c-90 0-115-105-40-150 58-35 120 3 122 59 2 55-35 91-82 91Z" fill="none" stroke="#dfe9ff" stroke-width="6"/><path d="M-12-32l-24-92M-3-37l9-96M6-34l43-88M-22-25l-60-60M28-20l72-50" stroke="url(#g)" stroke-width="4"/><path d="M-36-110h75" stroke="#00e5ff" stroke-width="3"/></g><circle cx="170" cy="140" r="8" fill="#00e5ff" filter="url(#gl)"/><circle cx="725" cy="190" r="7" fill="#00ffb3" filter="url(#gl)"/><text x="450" y="555" fill="#d7c7ff" font-family="monospace" font-size="22" letter-spacing="6" text-anchor="middle">BADMINTON · AGILITY · FOCUS</text></svg>